<?xml version="1.0" standalone="no"?>
<!DOCTYPE svg PUBLIC "-//W3C//DTD SVG 20010904//EN"
 "http://www.w3.org/TR/2001/REC-SVG-20010904/DTD/svg10.dtd">
<svg version="1.0" xmlns="http://www.w3.org/2000/svg"
 width="40.000000pt" height="44.000000pt" viewBox="0 0 40.000000 44.000000"
 preserveAspectRatio="xMidYMid meet">

<g transform="translate(0.000000,44.000000) scale(0.100000,-0.100000)"
fill="#000000" stroke="none">
<path d="M160 391 c-96 -20 -140 -81 -92 -124 40 -36 110 -1 98 49 -8 29 16
43 39 24 27 -22 16 -52 -36 -100 -43 -40 -51 -52 -45 -73 6 -25 37 -40 62 -30
9 3 12 13 9 24 -5 14 2 20 33 28 91 25 141 87 112 138 -31 55 -103 80 -180 64z"/>
<path d="M127 102 c-24 -26 -21 -51 8 -64 46 -21 97 36 63 70 -18 18 -53 15
-71 -6z"/>
</g>
</svg>
